Simulation
nRows=31
nColumns=15
endheader
time  TH_x TH_y TH_z SC_y  SC_z  SC_x  AC_y  AC_z  AC_x  GH_y  GH_z  GH_yy  EL_x  PS_y
0.0  0.000000  0.000000  0.000000  -28.416513216337886  3.29370670920121  2.9287660310574344  49.95535997312372  8.183757490835033  1.9020600150548528  124.62565315410423  3.553546454533396  -87.78432530825229  20.649971204328256  120.000000
0.02949999999999999  0.000000  0.000000  0.000000  -28.319822161388373  3.278230899890535  2.760228418156374  49.92813487819596  8.037339060151625  1.9686541111650577  126.30894833141697  3.441803607094219  -89.4795599892335  20.69499956174334  120.000000
0.05899999999999998  0.000000  0.000000  0.000000  -28.217565696598616  3.2924179385306642  2.636391256981008  49.9017783338626  7.944462346803211  2.0508355990759846  126.44064428924064  3.3326351400613685  -89.65861198283723  20.699686009812467  120.000000
0.08849999999999997  0.000000  0.000000  0.000000  -28.119541262720535  3.32342056927547  2.5265329396506173  49.88122549900155  7.87359856298535  2.134350401973036  124.92223628629165  3.2253451580755876  -88.23283267018303  20.628160551755293  120.000000
0.11799999999999997  0.000000  0.000000  0.000000  -28.027851185131052  3.358496974879819  2.416240210776085  49.86126170071402  7.800926602171745  2.2184037212263887  121.6378480944357  3.1200851029942247  -85.09948014949461  20.45791441038421  120.000000
0.14749999999999996  0.000000  0.000000  0.000000  -27.941011878497218  3.388651893838631  2.297890280680995  49.84020413712652  7.712629940657662  2.3033612951438025  116.42653034259995  3.026151791934294  -80.1129029494224  20.183482100357462  120.000000
0.17699999999999994  0.000000  0.000000  0.000000  -27.857268763292986  3.4130368848063286  2.1698263943285263  49.81947183950302  7.605307562225929  2.3900409851574596  109.1664997118357  2.9634488444517544  -73.16745315613986  19.813965156178696  120.000000
0.20649999999999993  0.000000  0.000000  0.000000  -27.776820905411235  3.434281652156911  2.035933452333074  49.80082045088269  7.484035314712657  2.4791018808362844  99.9284641936186  2.961965412971192  -64.35141831010246  19.36539063815178  120.000000
0.23599999999999993  0.000000  0.000000  0.000000  -27.70088521372116  3.457692681545269  1.9036139784468515  49.78737601546523  7.359009002028563  2.5712001419212247  89.17569292188668  3.0610683415358544  -54.146614204196034  18.858684159577237  120.000000
0.2654999999999999  0.000000  0.000000  0.000000  -27.631975845323346  3.4878749403561704  1.7833163136509362  49.78303859026703  7.241789687128828  2.6671843129994195  77.86612796300854  3.2999496499953467  -43.53034443272757  18.316606692182123  120.000000
0.29499999999999993  0.000000  0.000000  0.000000  -27.573081919545242  3.5288974300273166  1.6861833113366127  49.79153187824094  7.143776840936836  2.7680571349230214  67.13214738016748  3.704089061701969  -33.655015500048584  17.76395239706333  120.000000
0.3244999999999999  0.000000  0.000000  0.000000  -27.529879634140713  3.5841600794661956  1.6231119545893469  49.815174590791315  7.074627771138646  2.872866118336291  57.77346252494567  4.27733995081164  -25.34031373439728  17.22606066041006  120.000000
0.35399999999999987  0.000000  0.000000  0.000000  -27.509155579512374  3.656606071211609  1.6008579741529931  49.85522374524918  7.0409987231555995  2.9783290981742527  50.05048401138064  5.007253185935239  -18.864775045984196  16.730280535897315  120.000000
0.3834999999999999  0.000000  0.000000  0.000000  -27.52047175219486  3.7466425987961816  1.6236403037194291  49.91100232612393  7.04733957278428  3.080750575618049  43.83677664043735  5.873958613380612  -14.11566772512053  16.304163968184703  120.000000
0.41299999999999987  0.000000  0.000000  0.000000  -27.573530789513153  3.8538161708135235  1.6942122589671615  49.980655580253895  7.098259536523779  3.1766939390992532  38.848192919825145  6.857241868093323  -10.815083946581542  15.97353820770482  120.000000
0.4424999999999999  0.000000  0.000000  0.000000  -27.67942101716646  3.975835298425781  1.8155554470445954  50.063340049819345  7.197630950173337  3.2625258074287213  34.79698786462247  7.9387192663150605  -8.670040000442484  15.75828268616811  120.000000
0.47199999999999986  0.000000  0.000000  0.000000  -27.84662855301163  4.107307087821034  1.9900486250950535  50.16023141988825  7.346648174019899  3.336434843752856  31.452373181185262  9.100357825429132  -7.429147060823651  15.668181950686884  120.000000
0.5014999999999998  0.000000  0.000000  0.000000  -28.081427865535538  4.239259242632168  2.2196703103791418  50.274905501608295  7.544031253702449  3.398307104532713  28.635231219103492  10.323727020910924  -6.87579639380687  15.697829103741878  120.000000
0.5309999999999998  0.000000  0.000000  0.000000  -28.385916162139736  4.3649797914423285  2.5060928021370374  50.413139013547514  7.788441911386989  3.4475606242971057  26.206944780481496  11.591584855292554  -6.819018401646933  15.825391827902807  120.000000
0.5604999999999999  0.000000  0.000000  0.000000  -28.75825556397186  4.481484160030425  2.850940979261454  50.58074965530806  8.079737089132422  3.4826610256830617  24.064044526768622  12.88918553908941  -7.093927000952145  16.01634509930757  120.000000
0.5899999999999999  0.000000  0.000000  0.000000  -29.192373590476876  4.588019574494292  3.2559988760888943  50.78008385511264  8.41755006911019  3.5037219780237203  22.136036039714355  14.203305867420134  -7.566999454529996  16.231604187044514  120.000000
0.6194999999999998  0.000000  0.000000  0.000000  -29.677530187594165  4.684735450614813  3.7214055325705053  51.008367902895415  8.79899422928527  3.5135142604661564  20.378888155780036  15.520586757155474  -8.139256882350582  16.43579756737049  120.000000
0.6489999999999998  0.000000  0.000000  0.000000  -30.199759353483497  4.7728598356707534  4.244173637974509  51.25911538785062  9.217829189212827  3.5160724744021064  18.769288448215196  16.82659625068293  -8.74737442625734  16.60478067541009  120.000000
0.6784999999999998  0.000000  0.000000  0.000000  -30.742167132913426  4.856933005722977  4.817433830960537  51.52214887062341  9.665874648521827  3.515026561924143  17.290013361257785  18.10672304772109  -9.354427961817358  16.728457826464126  120.000000
0.7079999999999997  0.000000  0.000000  0.000000  -31.288576825125563  4.94310070250458  5.433899257271537  51.784947241595965  10.13462097049456  3.513572330677092  15.922232354480533  19.347003120768573  -9.941860309640742  16.8095911942314  120.000000
0.7374999999999998  0.000000  0.000000  0.000000  -31.822069984605662  5.038617521206779  6.085808041296012  52.03631961049464  10.616243350483181  3.5145054604617183  14.644531240428359  20.535081598661204  -10.504344023965167  16.859798999760983  120.000000
0.7669999999999998  0.000000  0.000000  0.000000  -32.32787458713493  5.147825774420408  6.7676214527149146  52.26889622128358  11.103840512832255  3.5204389674683987  13.43103030657439  21.659683915901635  -11.04129512274691  16.895626099936585  120.000000
0.7964999999999998  0.000000  0.000000  0.000000  -32.79415863122981  5.270860921888142  7.476231743402531  52.47917205054977  11.591483366117497  3.534009637072179  12.249456438289865  22.710991007193744  -11.548650941516685  16.93455903016517  120.000000
0.8259999999999997  0.000000  0.000000  0.000000  -33.212954411117956  5.404482184559996  8.21200188401828  52.66915626496631  12.075436876370238  3.556736538229158  11.066788874592792  23.681476917234335  -12.018745770643221  16.993617505007627  120.000000
0.8554999999999997  0.000000  0.000000  0.000000  -33.581099129986825  5.542814900777836  8.978393184730232  52.84488307496996  12.5549236138479  3.588067732451652  9.851947472983378  24.56666277965856  -12.439503038387413  17.087978995819192  120.000000
0.8849999999999998  0.000000  0.000000  0.000000  -33.89901305380735  5.678284055331102  9.780567590304912  53.014058129488795  13.03069551863934  3.6260301736054914  8.578936343182251  25.364449630422648  -12.795942791147569  17.2302087484554  120.000000
